<svg width="800" height="800" viewBox="0 0 800 800" fill="none" xmlns="http://www.w3.org/2000/svg">
<path d="M599.444 599.445H599.843M615.4 479.778H639.333C676.506 479.778 695.09 479.778 709.753 485.849C729.299 493.947 744.831 509.479 752.929 529.025C759 543.688 759 562.272 759 599.445C759 636.617 759 655.201 752.929 669.865C744.831 689.41 729.299 704.943 709.753 713.04C695.09 719.111 676.506 719.111 639.333 719.111H160.667C123.495 719.111 104.909 719.111 90.248 713.04C70.7005 704.943 55.1697 689.41 47.0727 669.865C41 655.201 41 636.617 41 599.445C41 562.272 41 543.688 47.0727 529.025C55.1697 509.479 70.7005 493.947 90.248 485.849C104.909 479.778 123.495 479.778 160.667 479.778H184.6M400 519.667V80.8892M400 519.667L280.333 400M400 519.667L519.667 400" stroke="#D4D4D4" stroke-width="75" stroke-linecap="round" stroke-linejoin="round"/>
</svg>
