<svg width="101" height="22" viewBox="0 0 101 22" fill="none" xmlns="http://www.w3.org/2000/svg">
    <path fill-rule="evenodd" clip-rule="evenodd"
        d="M15.8233 16.0134C12.1986 16.0134 9.22461 13.0394 9.22461 9.3218C9.22461 5.69718 12.1986 2.72314 15.8233 2.72314C19.5408 2.72314 22.5149 5.69718 22.5149 9.3218C22.5149 13.0394 19.5408 16.0134 15.8233 16.0134ZM15.8233 5.41837C13.6857 5.41837 11.9198 7.1842 11.9198 9.3218C11.9198 11.5523 13.6857 13.3182 15.8233 13.3182C18.0538 13.3182 19.8196 11.5523 19.8196 9.3218C19.8196 7.1842 18.0538 5.41837 15.8233 5.41837Z"
        fill="black" />
    <path fill-rule="evenodd" clip-rule="evenodd"
        d="M45.4689 16.0132C41.7514 16.0132 38.7773 13.0391 38.7773 9.32156C38.7773 5.69694 41.7514 2.7229 45.4689 2.7229C49.0936 2.7229 52.1605 5.69694 52.1605 9.32156C52.1605 13.0391 49.0936 16.0132 45.4689 16.0132ZM45.4689 5.41812C43.2384 5.41812 41.4726 7.18396 41.4726 9.32156C41.4726 11.5521 43.2384 13.3179 45.4689 13.3179C47.6065 13.3179 49.4653 11.5521 49.4653 9.32156C49.4653 7.18396 47.6065 5.41812 45.4689 5.41812Z"
        fill="black" />
    <path fill-rule="evenodd" clip-rule="evenodd"
        d="M93.8908 16.0132C90.2662 16.0132 87.1992 13.0391 87.1992 9.32156C87.1992 5.69694 90.2662 2.7229 93.8908 2.7229C97.6084 2.7229 100.582 5.69694 100.582 9.32156C100.582 13.0391 97.6084 16.0132 93.8908 16.0132ZM93.8908 5.41812C91.7532 5.41812 89.8945 7.18396 89.8945 9.32156C89.8945 11.5521 91.7532 13.3179 93.8908 13.3179C96.1214 13.3179 97.8872 11.5521 97.8872 9.32156C97.8872 7.18396 96.1214 5.41812 93.8908 5.41812Z"
        fill="#01DBFF" />
    <path fill-rule="evenodd" clip-rule="evenodd"
        d="M93.8908 16.0132C90.2662 16.0132 87.1992 13.0391 87.1992 9.32156C87.1992 5.69694 90.2662 2.7229 93.8908 2.7229C97.6084 2.7229 100.582 5.69694 100.582 9.32156C100.582 13.0391 97.6084 16.0132 93.8908 16.0132ZM93.8908 5.41812C91.7532 5.41812 89.8945 7.18396 89.8945 9.32156C89.8945 11.5521 91.7532 13.3179 93.8908 13.3179C96.1214 13.3179 97.8872 11.5521 97.8872 9.32156C97.8872 7.18396 96.1214 5.41812 93.8908 5.41812Z"
        fill="#01DBFF" />
    <path d="M80.2304 15.2699H77.5352V0.678467H80.2304V15.2699Z" fill="#01DBFF" />
    <path d="M85.246 15.2703H82.5508V4.02466H85.246V15.2703Z" fill="#01DBFF" />
    <path d="M85.246 2.72313H82.5508V0.678467H85.246V2.72313Z" fill="#01DBFF" />
    <path
        d="M9.31828 16.1063H5.22898C2.62669 16.1063 0.582031 13.9687 0.582031 11.3664V0.678467H3.27725V11.3664C3.27725 12.4817 4.11371 13.4111 5.22898 13.4111H9.31828V16.1063Z"
        fill="black" />
    <path
        d="M56.2534 16.1063H52.1641V13.4111H56.2534C57.3686 13.4111 58.2051 12.4817 58.2051 11.3664V0.678467H60.9003V11.3664C60.9003 13.9687 58.7627 16.1063 56.2534 16.1063Z"
        fill="#01DBFF" />
    <path fill-rule="evenodd" clip-rule="evenodd"
        d="M37.2004 9.13605C37.2004 9.19801 37.2004 9.25997 37.2004 9.32193C37.2004 13.0395 34.2264 16.0135 30.5088 16.0135C26.8842 16.0135 23.9102 13.0395 23.9102 9.32193C23.9102 5.69731 26.8842 2.72327 30.5088 2.72327C31.9958 2.72327 33.3899 3.18796 34.5052 4.02441V1.42212H37.2004V9.13605ZM34.5052 9.41487C34.5052 7.27728 32.7393 5.4185 30.5088 5.4185C28.3712 5.4185 26.6054 7.27728 26.6054 9.41487C26.6054 11.6454 28.3712 13.4113 30.5088 13.4113C32.7393 13.4113 34.5052 11.6454 34.5052 9.41487Z"
        fill="black" />
    <path
        d="M69.1708 16.0138C65.9179 16.0138 63.2227 13.3186 63.2227 10.0657V4.02466H65.9179V10.0657C65.9179 11.9245 67.4049 13.3186 69.1708 13.3186C71.0295 13.3186 72.4236 11.9245 72.4236 10.0657V4.02466H75.1188V10.0657C75.1188 13.3186 72.5166 16.0138 69.1708 16.0138Z"
        fill="#01DBFF" />
    <path
        d="M31.8116 21.0323H25.2129V18.337H31.8116C33.2986 18.337 34.5068 17.1288 34.5068 15.6418V14.7124H37.202V15.6418C37.202 18.6158 34.7856 21.0323 31.8116 21.0323Z"
        fill="black" />
</svg>