<svg width="800" height="800" viewBox="0 0 800 800" fill="none" xmlns="http://www.w3.org/2000/svg">
<path fill-rule="evenodd" clip-rule="evenodd" d="M66.666 216.667C66.666 133.824 133.823 66.6666 216.666 66.6666H399.999C473.636 66.6666 533.333 126.362 533.333 200V233.333C533.333 251.743 518.409 266.667 499.999 266.667C481.589 266.667 466.666 251.743 466.666 233.333V200C466.666 163.181 436.819 133.333 399.999 133.333H216.666C170.642 133.333 133.333 170.643 133.333 216.667V583.333C133.333 629.357 170.642 666.667 216.666 666.667H399.999C436.819 666.667 466.666 636.82 466.666 600V566.667C466.666 548.257 481.589 533.333 499.999 533.333C518.409 533.333 533.333 548.257 533.333 566.667V600C533.333 673.637 473.636 733.333 399.999 733.333H216.666C133.823 733.333 66.666 666.177 66.666 583.333V216.667ZM609.763 276.43C622.779 263.412 643.886 263.412 656.903 276.43L756.903 376.43C769.919 389.447 769.919 410.553 756.903 423.57L656.903 523.57C643.886 536.587 622.779 536.587 609.763 523.57C596.746 510.553 596.746 489.447 609.763 476.43L652.859 433.333H366.666C348.256 433.333 333.333 418.41 333.333 400C333.333 381.59 348.256 366.667 366.666 366.667H652.859L609.763 323.57C596.746 310.553 596.746 289.447 609.763 276.43Z" fill="black"/>
</svg>
