<svg width="800" height="800" viewBox="0 0 800 800" fill="none" xmlns="http://www.w3.org/2000/svg">
<g clip-path="url(#clip0_107_29)">
<path fill-rule="evenodd" clip-rule="evenodd" d="M400 400C311.76 400 240 328.24 240 240C240 151.76 311.76 80 400 80C488.24 80 560 151.76 560 240C560 328.24 488.24 400 400 400ZM550.32 426.919C604.96 382.959 640 315.6 640 240C640 107.44 532.56 0 400 0C267.44 0 160 107.44 160 240C160 315.6 195.04 382.959 249.68 426.919C103.32 481.919 0 617.8 0 800H80C80 600 223.56 480 400 480C576.44 480 720 600 720 800H800C800 617.8 696.68 481.919 550.32 426.919Z" fill="#D4D4D4"/>
</g>
<defs>
<clipPath id="clip0_107_29">
<rect width="800" height="800" fill="white"/>
</clipPath>
</defs>
</svg>
